<svg width="49" height="49" viewBox="0 0 49 49" fill="none" xmlns="http://www.w3.org/2000/svg">
<rect width="49" height="49" rx="8" fill="#D9D9D9"/>
<g clip-path="url(#clip0_8_21)">
<path d="M36.7156 11.195C36.849 11.3089 36.942 11.4628 36.9806 11.6338C37.0193 11.8049 37.0016 11.9839 36.9301 12.144C34.4439 17.7178 29.2228 25.4203 25.4008 29.434C24.3295 30.5568 23.0083 31.4109 21.5446 31.9268C21.5154 32.2956 21.4471 32.801 21.2846 33.3373C20.958 34.4081 20.2008 35.7406 18.5091 36.1648C16.8709 36.5549 15.173 36.6277 13.5074 36.3793C13.1977 36.3303 12.8923 36.257 12.5941 36.1599C12.3183 36.0759 12.0612 35.9397 11.8369 35.7585C11.689 35.6327 11.575 35.4718 11.5054 35.2905C11.4191 35.0579 11.4214 34.8017 11.5119 34.5706C11.6663 34.1725 12.0254 33.9531 12.261 33.8361C12.9013 33.516 13.2766 33.1 13.6699 32.4939C13.8243 32.2599 13.9689 32.0113 14.1363 31.7269L14.3264 31.4051C14.5718 30.9908 14.8561 30.5276 15.2136 30.0271C16.0716 28.8263 17.1653 28.524 18.0509 28.5711C18.2556 28.5825 18.4458 28.6118 18.6164 28.6491C18.7171 28.3696 18.8471 28.0316 19.0031 27.6611C19.4273 26.6553 20.0724 25.3553 20.932 24.299C24.468 19.9603 30.9745 14.2143 35.7471 11.13C35.8941 11.0352 36.0677 10.9903 36.2421 11.002C36.4166 11.0137 36.5827 11.0814 36.7156 11.195Z" fill="#A66ADE"/>
</g>
<defs>
<clipPath id="clip0_8_21">
<rect width="26" height="26" fill="white" transform="translate(11 11)"/>
</clipPath>
</defs>
</svg>
