<svg width="57" height="57" viewBox="0 0 57 57" fill="none" xmlns="http://www.w3.org/2000/svg">
<g filter="url(#filter0_d_8_19)">
<rect x="4" width="49" height="49" rx="8" fill="#D9D9D9"/>
<path d="M26.5 31.5C26.5 32.6672 26.3547 33.5422 26.0625 34.125H24.75C24.5179 34.125 24.2954 34.2172 24.1313 34.3813C23.9672 34.5454 23.875 34.7679 23.875 35C23.875 35.2321 23.9672 35.4546 24.1313 35.6187C24.2954 35.7828 24.5179 35.875 24.75 35.875H35.25C35.4821 35.875 35.7046 35.7828 35.8687 35.6187C36.0328 35.4546 36.125 35.2321 36.125 35C36.125 34.7679 36.0328 34.5454 35.8687 34.3813C35.7046 34.2172 35.4821 34.125 35.25 34.125H33.9375C33.6453 33.5422 33.5 32.6672 33.5 31.5H40.5C44 31.5 44 28 44 28V17.5C44 14 40.5 14 40.5 14H19.5C16 14 16 17.5 16 17.5V28C16 31.5 19.5 31.5 19.5 31.5H26.5Z" fill="#6570EB"/>
</g>
<defs>
<filter id="filter0_d_8_19" x="0" y="0" width="57" height="57" filterUnits="userSpaceOnUse" color-interpolation-filters="sRGB">
<feFlood flood-opacity="0" result="BackgroundImageFix"/>
<feColorMatrix in="SourceAlpha" type="matrix" values="0 0 0 0 0 0 0 0 0 0 0 0 0 0 0 0 0 0 127 0" result="hardAlpha"/>
<feOffset dy="4"/>
<feGaussianBlur stdDeviation="2"/>
<feComposite in2="hardAlpha" operator="out"/>
<feColorMatrix type="matrix" values="0 0 0 0 0 0 0 0 0 0 0 0 0 0 0 0 0 0 0.25 0"/>
<feBlend mode="normal" in2="BackgroundImageFix" result="effect1_dropShadow_8_19"/>
<feBlend mode="normal" in="SourceGraphic" in2="effect1_dropShadow_8_19" result="shape"/>
</filter>
</defs>
</svg>
