<svg width="132" height="132" viewBox="0 0 132 132" fill="none" xmlns="http://www.w3.org/2000/svg">
<circle cx="66" cy="66" r="66" fill="#C1CFFF"/>
<path d="M80.3901 32.2909C80.8083 32.532 81.1319 32.907 81.3081 33.3547C81.4842 33.8024 81.5025 34.2963 81.36 34.7557L73.6651 59.6253H87.8629C88.2801 59.6251 88.6883 59.7465 89.0369 59.9744C89.3856 60.2023 89.6596 60.5268 89.825 60.9078C89.9904 61.2889 90.04 61.7097 89.9677 62.1184C89.8954 62.5272 89.7043 62.9059 89.4181 63.2079L55.2375 99.3308C54.9068 99.6806 54.4667 99.9087 53.9889 99.9778C53.5112 100.047 53.024 99.9532 52.6067 99.7117C52.1895 99.4701 51.8668 99.0951 51.6912 98.6478C51.5157 98.2005 51.4976 97.7072 51.64 97.2484L59.3349 72.3746H45.1371C44.7199 72.3747 44.3117 72.2534 43.9631 72.0255C43.6144 71.7975 43.3404 71.473 43.175 71.092C43.0096 70.711 42.96 70.2902 43.0323 69.8814C43.1046 69.4727 43.2957 69.094 43.5819 68.792L77.7625 32.6691C78.0928 32.3198 78.5322 32.0918 79.0093 32.0224C79.4864 31.953 79.973 32.0461 80.3901 32.2866V32.2909Z" fill="#2538FF"/>
</svg>
