<svg width="59" height="57" viewBox="0 0 59 57" fill="none" xmlns="http://www.w3.org/2000/svg">
<g filter="url(#filter0_d_8_20)">
<rect x="4" width="51" height="49" rx="8" fill="#D9D9D9"/>
<path d="M30.9983 12H22.7347C21.9066 12 21.1124 12.3161 20.5268 12.8787C19.9412 13.4413 19.6122 14.2044 19.6122 15V33C19.6122 33.7956 19.9412 34.5587 20.5268 35.1213C21.1124 35.6839 21.9066 36 22.7347 36H35.2245C36.0526 36 36.8468 35.6839 37.4324 35.1213C38.018 34.5587 38.3469 33.7956 38.3469 33V19.0605C38.3468 18.6627 38.1823 18.2812 37.8895 18L32.102 12.4395C31.8093 12.1582 31.4123 12.0001 30.9983 12V12ZM31.3214 17.25V14.25L36.0051 18.75H32.8827C32.4686 18.75 32.0715 18.592 31.7787 18.3107C31.4859 18.0294 31.3214 17.6478 31.3214 17.25ZM26.8657 23.469C26.9383 23.3993 27.0244 23.344 27.1193 23.3062C27.2141 23.2685 27.3157 23.2491 27.4184 23.2491C27.521 23.2491 27.6226 23.2685 27.7175 23.3062C27.8123 23.344 27.8985 23.3993 27.971 23.469C28.0436 23.5387 28.1012 23.6215 28.1405 23.7126C28.1797 23.8037 28.2 23.9014 28.2 24C28.2 24.0986 28.1797 24.1963 28.1405 24.2874C28.1012 24.3785 28.0436 24.4613 27.971 24.531L25.3997 27L27.971 29.469C28.1176 29.6098 28.2 29.8008 28.2 30C28.2 30.1992 28.1176 30.3902 27.971 30.531C27.8245 30.6718 27.6257 30.7509 27.4184 30.7509C27.2111 30.7509 27.0123 30.6718 26.8657 30.531L23.7432 27.531C23.6705 27.4613 23.6129 27.3786 23.5735 27.2874C23.5342 27.1963 23.5139 27.0987 23.5139 27C23.5139 26.9013 23.5342 26.8037 23.5735 26.7126C23.6129 26.6214 23.6705 26.5387 23.7432 26.469L26.8657 23.469V23.469ZM31.0935 23.469L34.2159 26.469C34.2886 26.5387 34.3463 26.6214 34.3857 26.7126C34.425 26.8037 34.4453 26.9013 34.4453 27C34.4453 27.0987 34.425 27.1963 34.3857 27.2874C34.3463 27.3786 34.2886 27.4613 34.2159 27.531L31.0935 30.531C30.9469 30.6718 30.7481 30.7509 30.5408 30.7509C30.3335 30.7509 30.1347 30.6718 29.9881 30.531C29.8416 30.3902 29.7592 30.1992 29.7592 30C29.7592 29.8008 29.8416 29.6098 29.9881 29.469L32.5595 27L29.9881 24.531C29.9156 24.4613 29.858 24.3785 29.8187 24.2874C29.7794 24.1963 29.7592 24.0986 29.7592 24C29.7592 23.9014 29.7794 23.8037 29.8187 23.7126C29.858 23.6215 29.9156 23.5387 29.9881 23.469C30.0607 23.3993 30.1469 23.344 30.2417 23.3062C30.3365 23.2685 30.4382 23.2491 30.5408 23.2491C30.6435 23.2491 30.7451 23.2685 30.8399 23.3062C30.9347 23.344 31.0209 23.3993 31.0935 23.469V23.469Z" fill="#8769F5"/>
</g>
<defs>
<filter id="filter0_d_8_20" x="0" y="0" width="59" height="57" filterUnits="userSpaceOnUse" color-interpolation-filters="sRGB">
<feFlood flood-opacity="0" result="BackgroundImageFix"/>
<feColorMatrix in="SourceAlpha" type="matrix" values="0 0 0 0 0 0 0 0 0 0 0 0 0 0 0 0 0 0 127 0" result="hardAlpha"/>
<feOffset dy="4"/>
<feGaussianBlur stdDeviation="2"/>
<feComposite in2="hardAlpha" operator="out"/>
<feColorMatrix type="matrix" values="0 0 0 0 0 0 0 0 0 0 0 0 0 0 0 0 0 0 0.25 0"/>
<feBlend mode="normal" in2="BackgroundImageFix" result="effect1_dropShadow_8_20"/>
<feBlend mode="normal" in="SourceGraphic" in2="effect1_dropShadow_8_20" result="shape"/>
</filter>
</defs>
</svg>
